<svg xmlns="http://www.w3.org/2000/svg" width="40" height="49" viewBox="0 0 40 49" fill="none">
  <path d="M24.6767 4.56105C24.7445 5.1198 24.8291 5.67855 24.8884 6.2373C24.99 7.12622 24.973 7.11775 25.7096 6.6098C26.7509 5.87327 27.8006 5.15367 28.8504 4.43406C29.0621 4.29014 29.1637 4.18855 29.0367 3.89225C28.7488 3.22344 28.715 2.51231 29.0197 1.82657C29.46 0.836061 30.4081 0.505891 31.3902 0.963049C32.5754 1.51333 33.185 3.31657 32.5754 4.451C31.9659 5.58543 30.6367 5.80554 29.7393 4.88276C29.4684 4.60338 29.316 4.56952 29.0113 4.83196C27.7752 5.8902 26.5985 6.99923 25.4556 8.14213C25.3201 8.27758 25.3032 8.40457 25.3455 8.59082C26.2937 12.646 27.8684 16.4218 30.4589 19.7235C32.3553 22.1447 34.658 24.1003 37.3248 25.6327C38.1798 26.1237 39.0688 26.5639 40 26.9957C39.7037 27.1819 39.3905 27.2242 39.0941 27.3089C37.2655 27.8084 35.403 28.1386 33.4982 28.0962C31.1616 28.0454 29.0197 27.4444 27.2842 25.7935C25.9466 24.5321 25.1339 22.949 24.6175 21.2135C23.7624 18.3435 23.6185 15.3889 23.737 12.4174C23.7709 11.5454 23.8301 10.6734 23.8809 9.75065C23.4746 10.047 23.1698 10.4025 22.8481 10.7327C19.1654 14.4323 15.559 18.2165 12.2573 22.2802C10.2508 24.7522 8.34602 27.292 6.83063 30.1026C6.11103 31.4403 5.49302 32.8287 5.20518 34.3356C5.01893 35.3176 5.01893 36.2828 5.39143 37.2225C5.40836 37.2648 5.40836 37.3156 5.43376 37.4172C3.75751 37.1717 2.15745 36.833 0.946832 35.5547C0.0240499 34.598 -0.069075 33.4128 0.0325157 32.1937C0.210299 30.1788 1.08229 28.4179 2.16592 26.7502C3.90989 24.0665 6.11103 21.7807 8.45608 19.6134C11.1313 17.1414 13.9843 14.8725 16.905 12.6968C19.1739 11.0205 21.4851 9.40354 23.8217 7.82889C24.0079 7.7019 24.101 7.57491 24.1264 7.34633C24.2534 6.41508 24.4143 5.4923 24.5667 4.56952H24.6683L24.6767 4.56105Z" fill="#7828c8"/>
  <path d="M21.1891 14.9159C20.9012 15.9318 20.5626 16.9307 20.2917 17.9382C19.8769 19.462 19.589 21.0028 19.6313 22.5775C19.6906 24.7024 20.3255 26.5819 22.0611 27.9364C23.2886 28.8931 24.7193 29.3671 26.2263 29.6465C26.8951 29.7735 27.5724 29.8582 28.3089 29.892C28.038 30.1037 27.7417 30.146 27.4792 30.2391C25.4982 30.8825 23.4918 31.4498 21.4176 31.7037C19.9784 31.873 18.5392 31.9323 17.1593 31.3566C15.8132 30.7979 15.1444 29.7312 15.0005 28.3174C14.7973 26.3787 15.3815 24.6008 16.1519 22.8738C17.2948 20.3256 18.844 18.0228 20.5203 15.7963C20.7404 15.5 20.969 15.2037 21.1891 14.9074V14.9159Z" fill="#7828c8"/>
  <path d="M6.35641 41.2356H7.60937C7.60937 41.2356 7.67709 41.2441 7.70249 41.2695C7.72789 41.2949 7.73635 41.3288 7.73635 41.3626V48.6094C7.73635 48.6094 7.72789 48.6771 7.70249 48.7025C7.67709 48.7279 7.64323 48.7364 7.60937 48.7364H6.35641C6.35641 48.7364 6.28869 48.7279 6.26329 48.7025C6.23789 48.6771 6.22942 48.6433 6.22942 48.6094V43.8855C6.22942 43.8855 6.22942 43.8431 6.20403 43.8431C6.17863 43.8431 6.17863 43.8516 6.1617 43.877L5.02727 45.6548C4.9934 45.7141 4.94261 45.7395 4.87488 45.7395H4.23994C4.17221 45.7395 4.12142 45.7141 4.08755 45.6548L2.95312 43.877C2.95312 43.877 2.92773 43.8431 2.91079 43.8516C2.89386 43.8516 2.8854 43.8685 2.8854 43.9024V48.6179C2.8854 48.6179 2.87693 48.6856 2.85153 48.711C2.82613 48.7364 2.79227 48.7449 2.75841 48.7449H1.51392C1.51392 48.7449 1.44619 48.7364 1.4208 48.711C1.3954 48.6856 1.38693 48.6518 1.38693 48.6179V41.3711C1.38693 41.3711 1.3954 41.3034 1.4208 41.278C1.44619 41.2526 1.48006 41.2441 1.51392 41.2441H2.76687C2.8346 41.2441 2.87693 41.2695 2.91926 41.3288L4.52778 43.8262C4.55318 43.8685 4.57011 43.8685 4.59551 43.8262L6.21249 41.3288C6.24636 41.2695 6.29715 41.2441 6.36488 41.2441L6.35641 41.2356Z" fill="#7828c8"/>
  <path d="M10.6404 48.7026C10.6404 48.7026 10.6065 48.6434 10.6065 48.6095V41.3627C10.6065 41.3627 10.615 41.295 10.6404 41.2696C10.6658 41.2442 10.6997 41.2357 10.7335 41.2357H11.9865C11.9865 41.2357 12.0542 41.2442 12.0796 41.2696C12.105 41.295 12.1135 41.3288 12.1135 41.3627V48.6095C12.1135 48.6095 12.105 48.6772 12.0796 48.7026C12.0542 48.728 12.0203 48.7365 11.9865 48.7365H10.7335C10.7335 48.7365 10.6658 48.728 10.6404 48.7026Z" fill="#7828c8"/>
  <path d="M15.0174 48.7026C15.0174 48.7026 14.9836 48.6434 14.9836 48.6095V41.3627C14.9836 41.3627 14.992 41.295 15.0174 41.2696C15.0428 41.2442 15.0767 41.2357 15.1106 41.2357H16.3635C16.3635 41.2357 16.4312 41.2442 16.4566 41.2696C16.482 41.295 16.4905 41.3288 16.4905 41.3627V47.382C16.4905 47.382 16.5074 47.4328 16.5413 47.4328H20.0462C20.0462 47.4328 20.1139 47.4412 20.1393 47.4666C20.1647 47.492 20.1732 47.5259 20.1732 47.5597V48.601C20.1732 48.601 20.1647 48.6688 20.1393 48.6942C20.1139 48.7196 20.08 48.728 20.0462 48.728H15.1106C15.1106 48.728 15.0428 48.7196 15.0174 48.6942V48.7026Z" fill="#7828c8"/>
  <path d="M21.9256 48.7026C21.9256 48.7026 21.8917 48.6434 21.8917 48.6095V41.3627C21.8917 41.3627 21.9002 41.295 21.9256 41.2696C21.951 41.2442 21.9848 41.2357 22.0187 41.2357H23.2717C23.2717 41.2357 23.3394 41.2442 23.3648 41.2696C23.3902 41.295 23.3987 41.3288 23.3987 41.3627V48.6095C23.3987 48.6095 23.3902 48.6772 23.3648 48.7026C23.3394 48.728 23.3055 48.7365 23.2717 48.7365H22.0187C22.0187 48.7365 21.951 48.728 21.9256 48.7026Z" fill="#7828c8"/>
  <path d="M25.9892 48.7026C25.9892 48.7026 25.9554 48.6434 25.9554 48.6095V47.4497C25.9554 47.3904 25.9723 47.3396 26.0062 47.2888L29.4687 42.5987C29.4687 42.5987 29.4856 42.5733 29.4687 42.5564C29.4602 42.5395 29.4433 42.531 29.4179 42.531H26.0739C26.0739 42.531 26.0062 42.5225 25.9808 42.4971C25.9554 42.4717 25.9469 42.4379 25.9469 42.404V41.3627C25.9469 41.3627 25.9554 41.295 25.9808 41.2696C26.0062 41.2442 26.04 41.2357 26.0739 41.2357H31.0349C31.0349 41.2357 31.1026 41.2442 31.128 41.2696C31.1534 41.295 31.1619 41.3288 31.1619 41.3627V42.5225C31.1619 42.5818 31.145 42.6326 31.1111 42.6834L27.6485 47.3735C27.6485 47.3735 27.6485 47.3989 27.6485 47.4158C27.6485 47.4328 27.6739 47.4412 27.6909 47.4412H31.0349C31.0349 47.4412 31.1026 47.4497 31.128 47.4751C31.1534 47.5005 31.1619 47.5343 31.1619 47.5682V48.6095C31.1619 48.6095 31.1534 48.6772 31.128 48.7026C31.1026 48.728 31.0688 48.7365 31.0349 48.7365H26.0739C26.0739 48.7365 26.0062 48.728 25.9808 48.7026H25.9892Z" fill="#7828c8"/>
  <path d="M38.8237 42.4972C38.8237 42.4972 38.7645 42.531 38.7306 42.531H35.2173C35.2173 42.531 35.1665 42.548 35.1665 42.5818V44.2411C35.1665 44.2411 35.1834 44.2919 35.2173 44.2919H37.52C37.52 44.2919 37.5877 44.3004 37.6131 44.3258C37.6385 44.3512 37.647 44.3851 37.647 44.4189V45.4602C37.647 45.4602 37.6385 45.5279 37.6131 45.5533C37.5877 45.5787 37.5538 45.5872 37.52 45.5872H35.2173C35.2173 45.5872 35.1665 45.6041 35.1665 45.638V47.3735C35.1665 47.3735 35.1834 47.4243 35.2173 47.4243H38.7306C38.7306 47.4243 38.7983 47.4328 38.8237 47.4582C38.8491 47.4836 38.8576 47.5174 38.8576 47.5513V48.5926C38.8576 48.5926 38.8491 48.6603 38.8237 48.6857C38.7983 48.7111 38.7645 48.7196 38.7306 48.7196H33.7781C33.7781 48.7196 33.7103 48.7111 33.6849 48.6857C33.6595 48.6603 33.6511 48.6265 33.6511 48.5926V41.3458C33.6511 41.3458 33.6595 41.2781 33.6849 41.2527C33.7103 41.2273 33.7442 41.2188 33.7781 41.2188H38.7306C38.7306 41.2188 38.7983 41.2273 38.8237 41.2527C38.8491 41.2781 38.8576 41.3119 38.8576 41.3458V42.3871C38.8576 42.3871 38.8491 42.4548 38.8237 42.4802V42.4972Z" fill="#7828c8"/>
</svg>