<svg xmlns="http://www.w3.org/2000/svg" width="40" height="38" viewBox="0 0 40 38" fill="none">
<path d="M24.6767 4.56105C24.7445 5.1198 24.8291 5.67855 24.8884 6.2373C24.99 7.12622 24.973 7.11775 25.7096 6.6098C26.7509 5.87327 27.8006 5.15367 28.8504 4.43406C29.0621 4.29014 29.1637 4.18855 29.0367 3.89225C28.7488 3.22344 28.715 2.51231 29.0197 1.82657C29.46 0.836061 30.4081 0.505891 31.3902 0.963049C32.5754 1.51333 33.185 3.31657 32.5754 4.451C31.9659 5.58543 30.6367 5.80554 29.7393 4.88276C29.4684 4.60338 29.316 4.56952 29.0113 4.83196C27.7752 5.8902 26.5985 6.99923 25.4556 8.14213C25.3201 8.27758 25.3032 8.40457 25.3455 8.59082C26.2937 12.646 27.8684 16.4218 30.4589 19.7235C32.3553 22.1447 34.658 24.1003 37.3248 25.6327C38.1798 26.1237 39.0688 26.5639 40 26.9957C39.7037 27.1819 39.3905 27.2242 39.0941 27.3089C37.2655 27.8084 35.403 28.1386 33.4982 28.0962C31.1616 28.0454 29.0197 27.4444 27.2842 25.7935C25.9466 24.5321 25.1339 22.949 24.6175 21.2135C23.7624 18.3435 23.6185 15.3889 23.737 12.4174C23.7709 11.5454 23.8301 10.6734 23.8809 9.75065C23.4746 10.047 23.1698 10.4025 22.8481 10.7327C19.1654 14.4323 15.559 18.2165 12.2573 22.2802C10.2508 24.7522 8.34602 27.292 6.83063 30.1026C6.11103 31.4403 5.49302 32.8287 5.20518 34.3356C5.01893 35.3176 5.01893 36.2828 5.39143 37.2225C5.40836 37.2648 5.40836 37.3156 5.43376 37.4172C3.75751 37.1717 2.15745 36.833 0.946832 35.5547C0.0240499 34.598 -0.069075 33.4128 0.0325157 32.1937C0.210299 30.1788 1.08229 28.4179 2.16592 26.7502C3.90989 24.0665 6.11103 21.7807 8.45608 19.6134C11.1313 17.1414 13.9843 14.8725 16.905 12.6968C19.1739 11.0205 21.4851 9.40354 23.8217 7.82889C24.0079 7.7019 24.101 7.57491 24.1264 7.34633C24.2534 6.41508 24.4143 5.4923 24.5667 4.56952H24.6683L24.6767 4.56105Z" fill="#7828c8"/>
<path d="M21.1891 14.9159C20.9012 15.9318 20.5626 16.9307 20.2917 17.9382C19.8769 19.462 19.589 21.0028 19.6313 22.5775C19.6906 24.7024 20.3255 26.5819 22.0611 27.9364C23.2886 28.8931 24.7193 29.3671 26.2263 29.6465C26.8951 29.7735 27.5724 29.8582 28.3089 29.892C28.038 30.1037 27.7417 30.146 27.4792 30.2391C25.4982 30.8825 23.4918 31.4498 21.4176 31.7037C19.9784 31.873 18.5392 31.9323 17.1593 31.3566C15.8132 30.7979 15.1444 29.7312 15.0005 28.3174C14.7973 26.3787 15.3815 24.6008 16.1519 22.8738C17.2948 20.3256 18.844 18.0228 20.5203 15.7963C20.7404 15.5 20.969 15.2037 21.1891 14.9074V14.9159Z" fill="#7828c8"/>
</svg>